<?xml version="1.0" encoding="UTF-8" standalone="no"?> <svg xmlns:inkscape="http://www.inkscape.org/namespaces/inkscape" xmlns:sodipodi="http://sodipodi.sourceforge.net/DTD/sodipodi-0.dtd" xmlns="http://www.w3.org/2000/svg" xmlns:svg="http://www.w3.org/2000/svg" version="1.1" id="图层_1" x="0px" y="0px" viewBox="0 0 275.00001 123" xml:space="preserve" width="275" height="123"><defs id="defs4"></defs> <style type="text/css" id="style1"> .st0{fill-rule:evenodd;clip-rule:evenodd;fill:#E8DAD1;} .st1{fill-rule:evenodd;clip-rule:evenodd;fill:#515018;} .st2{fill:#686868;} .st3{fill:#515018;} </style> <g id="图层_x0020_2" transform="translate(-164.4,-480.1)"> <g id="_47925520"> </g> <g id="_47925472"> <path id="_47925280" class="st0" d="m 204.7,515.3 c -4.8,-15.3 13.1,-22.4 24.2,-15.9 l 1,4.2 c 0,0 -5.3,7 -2,14.2 v 1 c 0,0 -10.8,-6.1 -18.4,-1.8 -2.1,0 -3.7,-0.7 -4.8,-1.7 z"></path> <path id="_47925448" class="st0" d="m 230.6,508.8 c 2.9,-13.4 39.7,-18.7 25.3,9.4 0,0 -7.6,0 -10.4,1.6 0,0 -7.2,4.4 -9.4,4.9 -2.9,-0.6 -6.9,-9.7 -5.5,-15.9 z"></path> <path id="_47925088" class="st0" d="m 242.4,532.6 c 7.1,-14.9 33.8,-12.1 29.4,11.2 0,0 -4.8,8.3 -17,9.2 0,0 -6.1,-6 -6.7,-6.6 -0.6,-0.6 1.5,-1.9 -3,-7.9 z"></path> <path id="_47925208" class="st0" d="m 214.1,545.8 c 0,0 5.8,-10.8 16.3,-9.7 20.6,2.1 19.4,32.7 -2.6,31.8 -7,-0.3 -18.3,-7.6 -13.7,-22.1 z"></path> <path id="_47924944" class="st0" d="m 216.6,535.9 c 0,0 3,-5.3 5.2,-6.3 0,0 -6.9,-12 -18.4,-7.1 -13.8,6.4 -12,26.7 2.6,30.7 3.5,-5.8 7.7,-11.6 10.6,-17.3 z"></path> <path id="_47925232" class="st1" d="m 199,512.7 c -0.6,-16.5 15.4,-27 29.1,-19.2 0,0 2.6,-1.7 10.6,-1.1 15.7,-7.5 27.8,2.9 27.3,20.2 5.1,0.7 4.8,2.4 4.3,6.4 15.4,8.8 6.8,35.5 -14.4,36.5 0,0 -1.2,5.6 -8.1,6.3 -6.8,13 -29.1,12 -35.5,-2.2 0,0 -5.7,1.5 -6.9,-3.8 -14.1,-2.6 -19.5,-20.8 -10.8,-32.5 z m 2.7,0.5 c -2.9,-15.3 13.5,-25.9 26.1,-18.3 0,0 4.3,5.4 2.5,10.8 0,0 -3.2,8 -1.6,14.1 0,0 -7.8,-5.7 -17.6,-3.4 6.2,0.1 16.2,3.4 18.3,10.1 0,0 -8.8,0.9 -12.8,9.4 7.8,-9.7 23.6,-8.1 28.2,4.4 0,0 -0.4,-7.2 -5.1,-11.2 0,0 3.9,-9.1 17.3,-10 0,0 -1.6,-1 -4.6,-0.9 -6.8,0.3 -12.5,6.2 -16.2,6.4 v 0 0 c -0.9,0 -1.6,-0.3 -2.1,-1 0,0 -2.1,-2.8 -3.1,-7.5 -0.6,-2.5 -0.8,-5.2 -0.3,-7.5 v 0 c 0.1,-0.9 0.8,-1.9 1.1,-3 0,0 5.5,-10.7 7.5,-11.5 15.4,-9.4 28.6,6 24.3,19.6 0,0 -4.9,3.9 -5.4,4 -0.5,0 10.4,1.4 12.6,3.6 13.6,13.2 1.3,31.7 -15.2,32.4 l -9.8,-9.8 c 0,0 2.4,11.8 1.7,14 0,0 -4.5,10.1 -15.1,11 0,0 -14.1,2.1 -19,-11.9 0,0 0.2,-14.2 1,-14.6 -1.1,0.1 -7.5,7.8 -8.8,11.6 -12.7,-2 -17.6,-23.6 -7.6,-30.9 0,0 11.1,-3.3 13,-4.3 -3.4,-1.7 -5.9,-2.7 -9.3,-5.6 z"></path> </g> <polygon class="st1" points="168,528.5 180,528.5 180,492.5 183.6,492.5 183.6,566.8 180,566.8 180,531.4 168,531.4 168,566.8 164.4,566.8 164.4,492.5 168,492.5 " id="polygon1"></polygon> <g id="_47924992"> <polygon id="_47925016" class="st1" points="299.3,495.5 291.3,495.5 291.3,567 288.8,567 288.8,495.5 280.6,495.5 280.6,492.9 299.3,492.9 "></polygon> <path id="_47924968" class="st1" d="m 321.3,528.2 h 55 c -3.5,-42 -62.9,-44 -68.2,-1.5 -2.8,32.4 36.2,50.7 58.9,26.3 0.9,0.9 1.9,1.3 2.8,2.1 -21.4,24.7 -68.5,9.1 -64.6,-29.3 4.5,-44.5 73.5,-45.5 74.2,5.3 l -57.9,0.5 z"></path> <polygon id="_47925496" class="st1" points="395.7,564.2 411.6,564.2 411.6,567.4 392.7,567.4 392.7,567.4 392.5,567.4 392.5,492.9 395.7,492.9 "></polygon> </g> <g id="_47925112"> <path id="_47925040" class="st2" d="m 212,603.1 c 3,0 5.3,-1.2 6.8,-3.7 l -1.6,-1.1 c -1.2,1.9 -3,2.9 -5.3,2.9 -3.7,0 -6.2,-2.8 -6.2,-6.4 0,-3.7 2.4,-6.4 6.2,-6.4 2.2,0 3.8,0.9 5,2.6 l 1.5,-1.2 c -1.6,-2.2 -3.8,-3.4 -6.7,-3.4 -4.8,0 -8.1,3.5 -8.1,8.3 0.1,4.9 3.5,8.4 8.4,8.4 z m 16.4,0 c 0.9,0 1.8,-0.2 2.7,-0.6 l -0.4,-1.8 c -0.7,0.4 -1.4,0.6 -2.2,0.6 -1.9,0 -2.4,-1.1 -2.4,-2.8 v -20 h -2 v 20.4 c 0,2.7 1.5,4.2 4.3,4.2 z m 14.3,-16.6 c -4.8,0 -8.1,3.6 -8.1,8.3 0,5 3.5,8.3 8.4,8.3 2.9,0 5.2,-1.1 6.9,-3.2 l -1.5,-1.3 c -1.3,1.7 -3.1,2.6 -5.4,2.6 -3.6,0 -6.2,-2.3 -6.4,-5.9 h 14.1 c 0.1,-0.4 0.1,-0.6 0.1,-0.8 0.1,-4.7 -3.4,-8 -8.1,-8 z m 0.1,1.8 c 3.2,0 5.5,2.1 6,5.2 h -12.1 c 0.6,-3.1 2.9,-5.2 6.1,-5.2 z m 19.7,-1.8 c -2.6,0 -4.8,0.8 -6.5,2.6 l 1.3,1.5 c 1.5,-1.5 3.2,-2.2 5.1,-2.2 3.2,0 4.9,1.7 4.9,5.1 v 1 c -1.7,-0.9 -3.6,-1.3 -5.6,-1.3 -3.2,0 -6.3,1.3 -6.3,4.9 0,3.4 2.5,5 5.7,5 2.8,0 5.1,-1.3 6.4,-3.8 v 3.4 h 1.8 v -9.4 c -0.1,-4.5 -2.3,-6.8 -6.8,-6.8 z m -1.2,14.7 c -2,0 -3.9,-0.9 -3.9,-3.2 0,-2.5 2.5,-3.1 4.5,-3.1 2,0 3.7,0.4 5.2,1.3 -0.4,3 -2.8,5 -5.8,5 z m 22.6,-14.7 c -2.8,0 -4.8,1.3 -5.9,3.8 v -3.4 h -1.9 v 15.8 h 2 v -8 c 0,-3.3 1.7,-6.3 5.4,-6.3 3,0 4.1,2 4.1,4.8 v 9.5 h 2 v -9.9 c 0.1,-3.8 -1.8,-6.3 -5.7,-6.3 z"></path> <path id="_47925688" class="st2" d="m 315.3,603.1 c 1,0 2,-0.2 2.9,-0.6 l -0.4,-1.8 c -0.8,0.4 -1.5,0.6 -2.4,0.6 -2.1,0 -2.6,-1.1 -2.6,-2.8 v -20 h -2.2 v 20.4 c 0,2.7 1.6,4.2 4.7,4.2 z m 9.4,-20.6 c 1,0 1.9,-0.7 1.9,-1.7 0,-1 -0.8,-1.7 -1.9,-1.7 -1.1,0 -1.8,0.7 -1.8,1.7 -0.1,1 0.8,1.7 1.8,1.7 z m -1.1,20.1 h 2.2 v -15.8 h -2.2 z m 18.6,-16.1 c -3.1,0 -5.2,1.3 -6.4,3.8 v -3.4 h -2 v 15.8 h 2.2 v -8 c 0,-3.3 1.9,-6.3 5.9,-6.3 3.2,0 4.4,2 4.4,4.8 v 9.5 h 2.2 v -9.9 c 0,-3.8 -2,-6.3 -6.3,-6.3 z m 21.5,0 c -5.3,0 -8.8,3.6 -8.8,8.3 0,5 3.8,8.3 9.2,8.3 3.2,0 5.7,-1.1 7.5,-3.2 l -1.6,-1.3 c -1.4,1.7 -3.4,2.6 -5.8,2.6 -3.9,0 -6.8,-2.3 -7,-5.9 h 15.4 c 0.1,-0.4 0.1,-0.6 0.1,-0.8 -0.1,-4.7 -3.9,-8 -9,-8 z m 0.1,1.8 c 3.5,0 6,2.1 6.6,5.2 h -13.2 c 0.6,-3.1 3.1,-5.2 6.6,-5.2 z"></path> </g> </g> <g id="g2" transform="translate(-164.4,-480.1)"> <g id="g1"> <path class="st3" d="m 432.2,495.3 -2.8,-4.8 h -2 v 4.8 H 426 v -11.4 h 3.6 c 2.3,0 4,0.8 4,3.2 0,1.8 -1,2.8 -2.6,3.2 l 2.9,5 z m -4.8,-6 h 1.9 c 1.8,0 2.8,-0.7 2.8,-2.2 0,-1.5 -1,-2 -2.8,-2 h -1.9 z" id="path1"></path> </g> <path class="st3" d="m 429.9,499.1 c -5.2,0 -9.5,-4.3 -9.5,-9.5 0,-5.2 4.3,-9.5 9.5,-9.5 5.2,0 9.5,4.3 9.5,9.5 0,5.2 -4.3,9.5 -9.5,9.5 z m 0,-17.6 c -4.5,0 -8.1,3.6 -8.1,8.1 0,4.5 3.6,8.1 8.1,8.1 4.5,0 8.1,-3.6 8.1,-8.1 0,-4.5 -3.6,-8.1 -8.1,-8.1 z" id="path2"></path> </g> <g id="g4" transform="translate(-164.4,-480.1)"> <g id="g3"> </g> </g> </svg> 